<?xml version="1.0" encoding="UTF-8" standalone="no"?>
<!DOCTYPE svg PUBLIC "-//W3C//DTD SVG 1.1//EN"
 "http://www.w3.org/Graphics/SVG/1.1/DTD/svg11.dtd">
<!-- Generated by graphviz version 2.47.0 (20210316.0004)
 -->
<!-- Title: dependencies Pages: 1 -->
<svg width="1267pt" height="284pt"
 viewBox="0.00 0.00 1267.00 284.00" xmlns="http://www.w3.org/2000/svg" xmlns:xlink="http://www.w3.org/1999/xlink">
<g id="graph0" class="graph" transform="scale(1 1) rotate(0) translate(4 280)">
<title>dependencies</title>
<polygon fill="white" stroke="transparent" points="-4,4 -4,-280 1263,-280 1263,4 -4,4"/>
<text text-anchor="start" x="608.51" y="-42.4" font-family="sans-serif" font-weight="bold" font-size="14.00">Legend</text>
<polygon fill="#ffffb3" stroke="transparent" points="395.5,-10 395.5,-30 415.5,-30 415.5,-10 395.5,-10"/>
<text text-anchor="start" x="419.13" y="-15.4" font-family="sans-serif" font-size="14.00"> &#160;Declarations</text>
<polygon fill="#8dd3c7" stroke="transparent" points="508.5,-10 508.5,-30 528.5,-30 528.5,-10 508.5,-10"/>
<text text-anchor="start" x="532.23" y="-15.4" font-family="sans-serif" font-size="14.00"> &#160;Module</text>
<polygon fill="#80b1d3" stroke="transparent" points="594.5,-10 594.5,-30 614.5,-30 614.5,-10 594.5,-10"/>
<text text-anchor="start" x="618.28" y="-15.4" font-family="sans-serif" font-size="14.00"> &#160;Bootstrap</text>
<polygon fill="#fdb462" stroke="transparent" points="691.5,-10 691.5,-30 711.5,-30 711.5,-10 691.5,-10"/>
<text text-anchor="start" x="715.17" y="-15.4" font-family="sans-serif" font-size="14.00"> &#160;Providers</text>
<polygon fill="#fb8072" stroke="transparent" points="787.5,-10 787.5,-30 807.5,-30 807.5,-10 787.5,-10"/>
<text text-anchor="start" x="811.23" y="-15.4" font-family="sans-serif" font-size="14.00"> &#160;Exports</text>
<g id="clust1" class="cluster">
<title>cluster_AppModule</title>
<polygon fill="none" stroke="black" stroke-dasharray="1,5" points="8,-70 8,-268 1251,-268 1251,-70 8,-70"/>
</g>
<g id="clust2" class="cluster">
<title>cluster_AppModule_declarations</title>
<polygon fill="none" stroke="black" points="168,-78 168,-130 1243,-130 1243,-78 168,-78"/>
</g>
<g id="clust11" class="cluster">
<title>cluster_AppModule_imports</title>
<polygon fill="none" stroke="black" points="16,-78 16,-130 160,-130 160,-78 16,-78"/>
</g>
<g id="clust13" class="cluster">
<title>cluster_AppModule_bootstrap</title>
<polygon fill="none" stroke="black" points="600,-208 600,-260 724,-260 724,-208 600,-208"/>
</g>
<!-- AddComponent -->
<g id="node1" class="node">
<title>AddComponent</title>
<polygon fill="#ffffb3" stroke="black" points="1234.94,-122 1129.06,-122 1129.06,-86 1234.94,-86 1234.94,-122"/>
<text text-anchor="middle" x="1182" y="-99.8" font-family="Times,serif" font-size="14.00">AddComponent</text>
</g>
<!-- AppModule -->
<g id="node9" class="node">
<title>AppModule</title>
<polygon fill="#8dd3c7" stroke="black" points="703.66,-187 700.66,-191 679.66,-191 676.66,-187 620.34,-187 620.34,-151 703.66,-151 703.66,-187"/>
<text text-anchor="middle" x="662" y="-164.8" font-family="Times,serif" font-size="14.00">AppModule</text>
</g>
<!-- AddComponent&#45;&gt;AppModule -->
<g id="edge1" class="edge">
<title>AddComponent&#45;&gt;AppModule</title>
<path fill="none" stroke="black" d="M1182,-122.01C1182,-144.49 1182,-180 1182,-180 1182,-180 713.67,-180 713.67,-180"/>
<polygon fill="black" stroke="black" points="713.67,-176.5 703.67,-180 713.67,-183.5 713.67,-176.5"/>
</g>
<!-- AppComponent -->
<g id="node2" class="node">
<title>AppComponent</title>
<polygon fill="#ffffb3" stroke="black" points="1111.94,-122 1006.06,-122 1006.06,-86 1111.94,-86 1111.94,-122"/>
<text text-anchor="middle" x="1059" y="-99.8" font-family="Times,serif" font-size="14.00">AppComponent</text>
</g>
<!-- AppComponent&#45;&gt;AppModule -->
<g id="edge2" class="edge">
<title>AppComponent&#45;&gt;AppModule</title>
<path fill="none" stroke="black" d="M1059,-122.13C1059,-142.57 1059,-173 1059,-173 1059,-173 713.74,-173 713.74,-173"/>
<polygon fill="black" stroke="black" points="713.74,-169.5 703.74,-173 713.74,-176.5 713.74,-169.5"/>
</g>
<!-- BodyComponent -->
<g id="node3" class="node">
<title>BodyComponent</title>
<polygon fill="#ffffb3" stroke="black" points="987.67,-122 876.33,-122 876.33,-86 987.67,-86 987.67,-122"/>
<text text-anchor="middle" x="932" y="-99.8" font-family="Times,serif" font-size="14.00">BodyComponent</text>
</g>
<!-- BodyComponent&#45;&gt;AppModule -->
<g id="edge3" class="edge">
<title>BodyComponent&#45;&gt;AppModule</title>
<path fill="none" stroke="black" d="M932,-122.27C932,-140.56 932,-166 932,-166 932,-166 713.89,-166 713.89,-166"/>
<polygon fill="black" stroke="black" points="713.89,-162.5 703.89,-166 713.89,-169.5 713.89,-162.5"/>
</g>
<!-- ContactComponent -->
<g id="node4" class="node">
<title>ContactComponent</title>
<polygon fill="#ffffb3" stroke="black" points="858.38,-122 733.62,-122 733.62,-86 858.38,-86 858.38,-122"/>
<text text-anchor="middle" x="796" y="-99.8" font-family="Times,serif" font-size="14.00">ContactComponent</text>
</g>
<!-- ContactComponent&#45;&gt;AppModule -->
<g id="edge4" class="edge">
<title>ContactComponent&#45;&gt;AppModule</title>
<path fill="none" stroke="black" d="M796,-122.01C796,-138.05 796,-159 796,-159 796,-159 713.66,-159 713.66,-159"/>
<polygon fill="black" stroke="black" points="713.66,-155.5 703.66,-159 713.66,-162.5 713.66,-155.5"/>
</g>
<!-- FootComponent -->
<g id="node5" class="node">
<title>FootComponent</title>
<polygon fill="#ffffb3" stroke="black" points="715.51,-122 608.49,-122 608.49,-86 715.51,-86 715.51,-122"/>
<text text-anchor="middle" x="662" y="-99.8" font-family="Times,serif" font-size="14.00">FootComponent</text>
</g>
<!-- FootComponent&#45;&gt;AppModule -->
<g id="edge5" class="edge">
<title>FootComponent&#45;&gt;AppModule</title>
<path fill="none" stroke="black" d="M662,-122.11C662,-122.11 662,-140.99 662,-140.99"/>
<polygon fill="black" stroke="black" points="658.5,-140.99 662,-150.99 665.5,-140.99 658.5,-140.99"/>
</g>
<!-- HeadNavComponent -->
<g id="node6" class="node">
<title>HeadNavComponent</title>
<polygon fill="#ffffb3" stroke="black" points="590.19,-122 455.81,-122 455.81,-86 590.19,-86 590.19,-122"/>
<text text-anchor="middle" x="523" y="-99.8" font-family="Times,serif" font-size="14.00">HeadNavComponent</text>
</g>
<!-- HeadNavComponent&#45;&gt;AppModule -->
<g id="edge6" class="edge">
<title>HeadNavComponent&#45;&gt;AppModule</title>
<path fill="none" stroke="black" d="M523,-122.01C523,-138.05 523,-159 523,-159 523,-159 610.3,-159 610.3,-159"/>
<polygon fill="black" stroke="black" points="610.3,-162.5 620.3,-159 610.3,-155.5 610.3,-162.5"/>
</g>
<!-- LogInComponent -->
<g id="node7" class="node">
<title>LogInComponent</title>
<polygon fill="#ffffb3" stroke="black" points="437.55,-122 322.45,-122 322.45,-86 437.55,-86 437.55,-122"/>
<text text-anchor="middle" x="380" y="-99.8" font-family="Times,serif" font-size="14.00">LogInComponent</text>
</g>
<!-- LogInComponent&#45;&gt;AppModule -->
<g id="edge7" class="edge">
<title>LogInComponent&#45;&gt;AppModule</title>
<path fill="none" stroke="black" d="M380,-122.27C380,-140.56 380,-166 380,-166 380,-166 610.09,-166 610.09,-166"/>
<polygon fill="black" stroke="black" points="610.09,-169.5 620.09,-166 610.09,-162.5 610.09,-169.5"/>
</g>
<!-- RegisterComponent -->
<g id="node8" class="node">
<title>RegisterComponent</title>
<polygon fill="#ffffb3" stroke="black" points="303.98,-122 176.02,-122 176.02,-86 303.98,-86 303.98,-122"/>
<text text-anchor="middle" x="240" y="-99.8" font-family="Times,serif" font-size="14.00">RegisterComponent</text>
</g>
<!-- RegisterComponent&#45;&gt;AppModule -->
<g id="edge8" class="edge">
<title>RegisterComponent&#45;&gt;AppModule</title>
<path fill="none" stroke="black" d="M240,-122.13C240,-142.57 240,-173 240,-173 240,-173 609.99,-173 609.99,-173"/>
<polygon fill="black" stroke="black" points="609.99,-176.5 619.99,-173 609.99,-169.5 609.99,-176.5"/>
</g>
<!-- AppComponent  -->
<g id="node11" class="node">
<title>AppComponent </title>
<polygon fill="#80b1d3" stroke="black" points="716.44,-252 607.56,-252 607.56,-216 716.44,-216 716.44,-252"/>
<text text-anchor="middle" x="662" y="-229.8" font-family="Times,serif" font-size="14.00">AppComponent </text>
</g>
<!-- AppModule&#45;&gt;AppComponent  -->
<g id="edge10" class="edge">
<title>AppModule&#45;&gt;AppComponent </title>
<path fill="none" stroke="black" stroke-dasharray="1,5" d="M662,-187.11C662,-187.11 662,-205.99 662,-205.99"/>
<polygon fill="black" stroke="black" points="658.5,-205.99 662,-215.99 665.5,-205.99 658.5,-205.99"/>
</g>
<!-- AppRoutingModule -->
<g id="node10" class="node">
<title>AppRoutingModule</title>
<polygon fill="#8dd3c7" stroke="black" points="152.27,-122 149.27,-126 128.27,-126 125.27,-122 23.73,-122 23.73,-86 152.27,-86 152.27,-122"/>
<text text-anchor="middle" x="88" y="-99.8" font-family="Times,serif" font-size="14.00">AppRoutingModule</text>
</g>
<!-- AppRoutingModule&#45;&gt;AppModule -->
<g id="edge9" class="edge">
<title>AppRoutingModule&#45;&gt;AppModule</title>
<path fill="none" stroke="black" d="M88,-122.01C88,-144.49 88,-180 88,-180 88,-180 610.26,-180 610.26,-180"/>
<polygon fill="black" stroke="black" points="610.26,-183.5 620.26,-180 610.26,-176.5 610.26,-183.5"/>
</g>
</g>
</svg>
