<?xml version="1.0" encoding="UTF-8" standalone="no"?>
<!DOCTYPE svg PUBLIC "-//W3C//DTD SVG 1.1//EN"
 "http://www.w3.org/Graphics/SVG/1.1/DTD/svg11.dtd">
<!-- Generated by graphviz version 2.47.0 (20210316.0004)
 -->
<!-- Title: dependencies Pages: 1 -->
<svg width="1267pt" height="284pt"
 viewBox="0.00 0.00 1267.00 284.00" xmlns="http://www.w3.org/2000/svg" xmlns:xlink="http://www.w3.org/1999/xlink">
<g id="graph0" class="graph" transform="scale(1 1) rotate(0) translate(4 280)">
<title>dependencies</title>
<polygon fill="white" stroke="transparent" points="-4,4 -4,-280 1263,-280 1263,4 -4,4"/>
<text text-anchor="start" x="608.51" y="-42.4" font-family="sans-serif" font-weight="bold" font-size="14.00">Legend</text>
<polygon fill="#ffffb3" stroke="transparent" points="395.5,-10 395.5,-30 415.5,-30 415.5,-10 395.5,-10"/>
<text text-anchor="start" x="419.13" y="-15.4" font-family="sans-serif" font-size="14.00"> &#160;Declarations</text>
<polygon fill="#8dd3c7" stroke="transparent" points="508.5,-10 508.5,-30 528.5,-30 528.5,-10 508.5,-10"/>
<text text-anchor="start" x="532.23" y="-15.4" font-family="sans-serif" font-size="14.00"> &#160;Module</text>
<polygon fill="#80b1d3" stroke="transparent" points="594.5,-10 594.5,-30 614.5,-30 614.5,-10 594.5,-10"/>
<text text-anchor="start" x="618.28" y="-15.4" font-family="sans-serif" font-size="14.00"> &#160;Bootstrap</text>
<polygon fill="#fdb462" stroke="transparent" points="691.5,-10 691.5,-30 711.5,-30 711.5,-10 691.5,-10"/>
<text text-anchor="start" x="715.17" y="-15.4" font-family="sans-serif" font-size="14.00"> &#160;Providers</text>
<polygon fill="#fb8072" stroke="transparent" points="787.5,-10 787.5,-30 807.5,-30 807.5,-10 787.5,-10"/>
<text text-anchor="start" x="811.23" y="-15.4" font-family="sans-serif" font-size="14.00"> &#160;Exports</text>
<g id="clust1" class="cluster">
<title>cluster_AppModule</title>
<polygon fill="none" stroke="black" stroke-dasharray="1,5" points="8,-70 8,-268 1251,-268 1251,-70 8,-70"/>
</g>
<g id="clust13" class="cluster">
<title>cluster_AppModule_bootstrap</title>
<polygon fill="none" stroke="black" points="582,-208 582,-260 706,-260 706,-208 582,-208"/>
</g>
<g id="clust11" class="cluster">
<title>cluster_AppModule_imports</title>
<polygon fill="none" stroke="black" points="1099,-78 1099,-130 1243,-130 1243,-78 1099,-78"/>
</g>
<g id="clust2" class="cluster">
<title>cluster_AppModule_declarations</title>
<polygon fill="none" stroke="black" points="16,-78 16,-130 1091,-130 1091,-78 16,-78"/>
</g>
<!-- AddComponent -->
<g id="node1" class="node">
<title>AddComponent</title>
<polygon fill="#ffffb3" stroke="black" points="1082.94,-122 977.06,-122 977.06,-86 1082.94,-86 1082.94,-122"/>
<text text-anchor="middle" x="1030" y="-99.8" font-family="Times,serif" font-size="14.00">AddComponent</text>
</g>
<!-- AppModule -->
<g id="node9" class="node">
<title>AppModule</title>
<polygon fill="#8dd3c7" stroke="black" points="685.66,-187 682.66,-191 661.66,-191 658.66,-187 602.34,-187 602.34,-151 685.66,-151 685.66,-187"/>
<text text-anchor="middle" x="644" y="-164.8" font-family="Times,serif" font-size="14.00">AppModule</text>
</g>
<!-- AddComponent&#45;&gt;AppModule -->
<g id="edge1" class="edge">
<title>AddComponent&#45;&gt;AppModule</title>
<path fill="none" stroke="black" d="M1030,-122.13C1030,-142.57 1030,-173 1030,-173 1030,-173 695.68,-173 695.68,-173"/>
<polygon fill="black" stroke="black" points="695.68,-169.5 685.68,-173 695.68,-176.5 695.68,-169.5"/>
</g>
<!-- AppComponent -->
<g id="node2" class="node">
<title>AppComponent</title>
<polygon fill="#ffffb3" stroke="black" points="959.94,-122 854.06,-122 854.06,-86 959.94,-86 959.94,-122"/>
<text text-anchor="middle" x="907" y="-99.8" font-family="Times,serif" font-size="14.00">AppComponent</text>
</g>
<!-- AppComponent&#45;&gt;AppModule -->
<g id="edge2" class="edge">
<title>AppComponent&#45;&gt;AppModule</title>
<path fill="none" stroke="black" d="M907,-122.27C907,-140.56 907,-166 907,-166 907,-166 695.67,-166 695.67,-166"/>
<polygon fill="black" stroke="black" points="695.67,-162.5 685.67,-166 695.67,-169.5 695.67,-162.5"/>
</g>
<!-- BodyComponent -->
<g id="node3" class="node">
<title>BodyComponent</title>
<polygon fill="#ffffb3" stroke="black" points="835.67,-122 724.33,-122 724.33,-86 835.67,-86 835.67,-122"/>
<text text-anchor="middle" x="780" y="-99.8" font-family="Times,serif" font-size="14.00">BodyComponent</text>
</g>
<!-- BodyComponent&#45;&gt;AppModule -->
<g id="edge3" class="edge">
<title>BodyComponent&#45;&gt;AppModule</title>
<path fill="none" stroke="black" d="M780,-122.01C780,-138.05 780,-159 780,-159 780,-159 695.91,-159 695.91,-159"/>
<polygon fill="black" stroke="black" points="695.91,-155.5 685.91,-159 695.91,-162.5 695.91,-155.5"/>
</g>
<!-- ContactComponent -->
<g id="node4" class="node">
<title>ContactComponent</title>
<polygon fill="#ffffb3" stroke="black" points="706.38,-122 581.62,-122 581.62,-86 706.38,-86 706.38,-122"/>
<text text-anchor="middle" x="644" y="-99.8" font-family="Times,serif" font-size="14.00">ContactComponent</text>
</g>
<!-- ContactComponent&#45;&gt;AppModule -->
<g id="edge4" class="edge">
<title>ContactComponent&#45;&gt;AppModule</title>
<path fill="none" stroke="black" d="M644,-122.11C644,-122.11 644,-140.99 644,-140.99"/>
<polygon fill="black" stroke="black" points="640.5,-140.99 644,-150.99 647.5,-140.99 640.5,-140.99"/>
</g>
<!-- FootComponent -->
<g id="node5" class="node">
<title>FootComponent</title>
<polygon fill="#ffffb3" stroke="black" points="563.51,-122 456.49,-122 456.49,-86 563.51,-86 563.51,-122"/>
<text text-anchor="middle" x="510" y="-99.8" font-family="Times,serif" font-size="14.00">FootComponent</text>
</g>
<!-- FootComponent&#45;&gt;AppModule -->
<g id="edge5" class="edge">
<title>FootComponent&#45;&gt;AppModule</title>
<path fill="none" stroke="black" d="M510,-122.01C510,-138.05 510,-159 510,-159 510,-159 592.34,-159 592.34,-159"/>
<polygon fill="black" stroke="black" points="592.34,-162.5 602.34,-159 592.34,-155.5 592.34,-162.5"/>
</g>
<!-- HeadNavComponent -->
<g id="node6" class="node">
<title>HeadNavComponent</title>
<polygon fill="#ffffb3" stroke="black" points="438.19,-122 303.81,-122 303.81,-86 438.19,-86 438.19,-122"/>
<text text-anchor="middle" x="371" y="-99.8" font-family="Times,serif" font-size="14.00">HeadNavComponent</text>
</g>
<!-- HeadNavComponent&#45;&gt;AppModule -->
<g id="edge6" class="edge">
<title>HeadNavComponent&#45;&gt;AppModule</title>
<path fill="none" stroke="black" d="M371,-122.27C371,-140.56 371,-166 371,-166 371,-166 592.24,-166 592.24,-166"/>
<polygon fill="black" stroke="black" points="592.24,-169.5 602.24,-166 592.24,-162.5 592.24,-169.5"/>
</g>
<!-- LogInComponent -->
<g id="node7" class="node">
<title>LogInComponent</title>
<polygon fill="#ffffb3" stroke="black" points="285.55,-122 170.45,-122 170.45,-86 285.55,-86 285.55,-122"/>
<text text-anchor="middle" x="228" y="-99.8" font-family="Times,serif" font-size="14.00">LogInComponent</text>
</g>
<!-- LogInComponent&#45;&gt;AppModule -->
<g id="edge7" class="edge">
<title>LogInComponent&#45;&gt;AppModule</title>
<path fill="none" stroke="black" d="M228,-122.13C228,-142.57 228,-173 228,-173 228,-173 592.21,-173 592.21,-173"/>
<polygon fill="black" stroke="black" points="592.21,-176.5 602.21,-173 592.21,-169.5 592.21,-176.5"/>
</g>
<!-- RegisterComponent -->
<g id="node8" class="node">
<title>RegisterComponent</title>
<polygon fill="#ffffb3" stroke="black" points="151.98,-122 24.02,-122 24.02,-86 151.98,-86 151.98,-122"/>
<text text-anchor="middle" x="88" y="-99.8" font-family="Times,serif" font-size="14.00">RegisterComponent</text>
</g>
<!-- RegisterComponent&#45;&gt;AppModule -->
<g id="edge8" class="edge">
<title>RegisterComponent&#45;&gt;AppModule</title>
<path fill="none" stroke="black" d="M88,-122.01C88,-144.49 88,-180 88,-180 88,-180 592.21,-180 592.21,-180"/>
<polygon fill="black" stroke="black" points="592.21,-183.5 602.21,-180 592.21,-176.5 592.21,-183.5"/>
</g>
<!-- AppComponent  -->
<g id="node11" class="node">
<title>AppComponent </title>
<polygon fill="#80b1d3" stroke="black" points="698.44,-252 589.56,-252 589.56,-216 698.44,-216 698.44,-252"/>
<text text-anchor="middle" x="644" y="-229.8" font-family="Times,serif" font-size="14.00">AppComponent </text>
</g>
<!-- AppModule&#45;&gt;AppComponent  -->
<g id="edge10" class="edge">
<title>AppModule&#45;&gt;AppComponent </title>
<path fill="none" stroke="black" stroke-dasharray="1,5" d="M644,-187.11C644,-187.11 644,-205.99 644,-205.99"/>
<polygon fill="black" stroke="black" points="640.5,-205.99 644,-215.99 647.5,-205.99 640.5,-205.99"/>
</g>
<!-- AppRoutingModule -->
<g id="node10" class="node">
<title>AppRoutingModule</title>
<polygon fill="#8dd3c7" stroke="black" points="1235.27,-122 1232.27,-126 1211.27,-126 1208.27,-122 1106.73,-122 1106.73,-86 1235.27,-86 1235.27,-122"/>
<text text-anchor="middle" x="1171" y="-99.8" font-family="Times,serif" font-size="14.00">AppRoutingModule</text>
</g>
<!-- AppRoutingModule&#45;&gt;AppModule -->
<g id="edge9" class="edge">
<title>AppRoutingModule&#45;&gt;AppModule</title>
<path fill="none" stroke="black" d="M1171,-122.01C1171,-144.49 1171,-180 1171,-180 1171,-180 695.79,-180 695.79,-180"/>
<polygon fill="black" stroke="black" points="695.79,-176.5 685.79,-180 695.79,-183.5 695.79,-176.5"/>
</g>
</g>
</svg>
